<svg xmlns="http://www.w3.org/2000/svg" width="1440" height="900"><path d="M741,554L831,720L853,637Z" fill="#4d97c4" stroke="#4d97c4" stroke-width="1.51"/><path d="M741,554L635,728L831,720Z" fill="#5498c5" stroke="#5498c5" stroke-width="1.51"/><path d="M741,554L602,610L635,728Z" fill="#609fc9" stroke="#609fc9" stroke-width="1.51"/><path d="M635,728L676,806L831,720Z" fill="#5191c2" stroke="#5191c2" stroke-width="1.51"/><path d="M853,637L929,424L741,554Z" fill="#5a9dc8" stroke="#5a9dc8" stroke-width="1.51"/><path d="M831,720L971,612L853,637Z" fill="#4292c1" stroke="#4292c1" stroke-width="1.51"/><path d="M741,554L652,436L602,610Z" fill="#6da5cd" stroke="#6da5cd" stroke-width="1.51"/><path d="M929,424L652,436L741,554Z" fill="#6ca5cd" stroke="#6ca5cd" stroke-width="1.51"/><path d="M676,806L737,904L831,720Z" fill="#488abe" stroke="#488abe" stroke-width="1.51"/><path d="M831,720L1005,819L971,612Z" fill="#368abd" stroke="#368abd" stroke-width="1.51"/><path d="M652,436L615,421L602,610Z" fill="#79aad0" stroke="#79aad0" stroke-width="1.51"/><path d="M737,904L896,905L831,720Z" fill="#3e84b9" stroke="#3e84b9" stroke-width="1.51"/><path d="M971,612L929,424L853,637Z" fill="#4d98c4" stroke="#4d98c4" stroke-width="1.51"/><path d="M652,436L595,327L615,421Z" fill="#86b0d4" stroke="#86b0d4" stroke-width="1.51"/><path d="M896,905L1005,819L831,720Z" fill="#3182b9" stroke="#3182b9" stroke-width="1.51"/><path d="M676,806L601,923L737,904Z" fill="#5089b9" stroke="#5089b9" stroke-width="1.51"/><path d="M737,904L869,1035L896,905Z" fill="#3a7dae" stroke="#3a7dae" stroke-width="1.51"/><path d="M635,728L601,923L676,806Z" fill="#568ec0" stroke="#568ec0" stroke-width="1.51"/><path d="M354,715L601,923L635,728Z" fill="#6495c5" stroke="#6495c5" stroke-width="1.51"/><path d="M690,283L595,327L652,436Z" fill="#8ab2d4" stroke="#8ab2d4" stroke-width="1.51"/><path d="M971,612L1003,401L929,424Z" fill="#549bc7" stroke="#549bc7" stroke-width="1.51"/><path d="M1068,350L1003,401L1165,395Z" fill="#609ac7" stroke="#609ac7" stroke-width="1.51"/><path d="M690,283L652,436L929,424Z" fill="#7aabd1" stroke="#7aabd1" stroke-width="1.51"/><path d="M615,421L407,535L602,610Z" fill="#7cabd0" stroke="#7cabd0" stroke-width="1.51"/><path d="M602,610L354,715L635,728Z" fill="#6b9fca" stroke="#6b9fca" stroke-width="1.51"/><path d="M595,327L407,535L615,421Z" fill="#8ab1d4" stroke="#8ab1d4" stroke-width="1.51"/><path d="M920,266L690,283L929,424Z" fill="#7aaad0" stroke="#7aaad0" stroke-width="1.51"/><path d="M601,923L777,1047L737,904Z" fill="#4a82b1" stroke="#4a82b1" stroke-width="1.51"/><path d="M896,905L1095,887L1005,819Z" fill="#217ab1" stroke="#217ab1" stroke-width="1.51"/><path d="M777,1047L869,1035L737,904Z" fill="#3e7caa" stroke="#3e7caa" stroke-width="1.51"/><path d="M407,535L354,715L602,610Z" fill="#77a7ce" stroke="#77a7ce" stroke-width="1.51"/><path d="M1005,819L1157,805L971,612Z" fill="#2681b9" stroke="#2681b9" stroke-width="1.51"/><path d="M1111,1015L1095,887L896,905Z" fill="#1e74a9" stroke="#1e74a9" stroke-width="1.51"/><path d="M407,535L359,510L354,715Z" fill="#84add1" stroke="#84add1" stroke-width="1.51"/><path d="M420,263L359,510L407,535Z" fill="#96b6d7" stroke="#96b6d7" stroke-width="1.51"/><path d="M1003,401L920,266L929,424Z" fill="#6aa3cc" stroke="#6aa3cc" stroke-width="1.51"/><path d="M1095,887L1157,805L1005,819Z" fill="#1b77b1" stroke="#1b77b1" stroke-width="1.51"/><path d="M1003,401L1068,350L920,266Z" fill="#6aa1cb" stroke="#6aa1cb" stroke-width="1.51"/><path d="M1165,395L1003,401L971,612Z" fill="#5296c5" stroke="#5296c5" stroke-width="1.51"/><path d="M601,923L531,1040L777,1047Z" fill="#5081ac" stroke="#5081ac" stroke-width="1.51"/><path d="M339,867L531,1040L601,923Z" fill="#628bb7" stroke="#628bb7" stroke-width="1.51"/><path d="M257,800L339,867L354,715Z" fill="#799cc9" stroke="#799cc9" stroke-width="1.51"/><path d="M354,715L339,867L601,923Z" fill="#6c94c3" stroke="#6c94c3" stroke-width="1.51"/><path d="M1037,144L871,182L920,266Z" fill="#83acd1" stroke="#83acd1" stroke-width="1.51"/><path d="M1251,584L1165,395L971,612Z" fill="#438dc0" stroke="#438dc0" stroke-width="1.51"/><path d="M920,266L871,182L690,283Z" fill="#88afd3" stroke="#88afd3" stroke-width="1.51"/><path d="M596,121L420,263L595,327Z" fill="#a3bcdb" stroke="#a3bcdb" stroke-width="1.51"/><path d="M1037,144L920,266L1068,350Z" fill="#76a5cd" stroke="#76a5cd" stroke-width="1.51"/><path d="M1157,805L1251,584L971,612Z" fill="#2883ba" stroke="#2883ba" stroke-width="1.51"/><path d="M1095,887L1256,869L1157,805Z" fill="#1171ad" stroke="#1171ad" stroke-width="1.51"/><path d="M1157,805L1346,708L1251,584Z" fill="#1c79b4" stroke="#1c79b4" stroke-width="1.51"/><path d="M869,1035L1111,1015L896,905Z" fill="#2575a7" stroke="#2575a7" stroke-width="1.51"/><path d="M1156,1066L1111,1015L884,1220Z" fill="#196591" stroke="#196591" stroke-width="1.51"/><path d="M595,327L420,263L407,535Z" fill="#97b6d7" stroke="#97b6d7" stroke-width="1.51"/><path d="M596,121L595,327L690,283Z" fill="#9ab8d8" stroke="#9ab8d8" stroke-width="1.51"/><path d="M871,182L693,143L690,283Z" fill="#94b5d6" stroke="#94b5d6" stroke-width="1.51"/><path d="M144,706L257,800L354,715Z" fill="#82a3cd" stroke="#82a3cd" stroke-width="1.51"/><path d="M343,1103L524,1194L531,1040Z" fill="#5c7c9f" stroke="#5c7c9f" stroke-width="1.51"/><path d="M179,561L354,715L359,510Z" fill="#89afd3" stroke="#89afd3" stroke-width="1.51"/><path d="M1165,395L1204,348L1068,350Z" fill="#6096c6" stroke="#6096c6" stroke-width="1.51"/><path d="M1319,348L1204,348L1165,395Z" fill="#5c91c3" stroke="#5c91c3" stroke-width="1.51"/><path d="M1111,1015L1256,869L1095,887Z" fill="#126da7" stroke="#126da7" stroke-width="1.51"/><path d="M420,263L245,445L359,510Z" fill="#9ebad9" stroke="#9ebad9" stroke-width="1.51"/><path d="M524,1194L701,1206L531,1040Z" fill="#4e7497" stroke="#4e7497" stroke-width="1.51"/><path d="M531,1040L701,1206L777,1047Z" fill="#48769d" stroke="#48769d" stroke-width="1.51"/><path d="M777,1047L884,1220L869,1035Z" fill="#336f98" stroke="#336f98" stroke-width="1.51"/><path d="M693,143L596,121L690,283Z" fill="#9ebada" stroke="#9ebada" stroke-width="1.51"/><path d="M659,-68L596,121L693,143Z" fill="#adc1dd" stroke="#adc1dd" stroke-width="1.51"/><path d="M1111,1015L1156,1066L1256,869Z" fill="#0e68a0" stroke="#0e68a0" stroke-width="1.51"/><path d="M884,1220L1111,1015L869,1035Z" fill="#236b96" stroke="#236b96" stroke-width="1.51"/><path d="M701,1206L884,1220L777,1047Z" fill="#376b90" stroke="#376b90" stroke-width="1.51"/><path d="M245,445L179,561L359,510Z" fill="#98b7d7" stroke="#98b7d7" stroke-width="1.51"/><path d="M1204,348L1037,144L1068,350Z" fill="#6f9dc9" stroke="#6f9dc9" stroke-width="1.51"/><path d="M871,182L888,47L693,143Z" fill="#98b6d7" stroke="#98b6d7" stroke-width="1.51"/><path d="M701,1206L985,1303L884,1220Z" fill="#2f688e" stroke="#2f688e" stroke-width="1.51"/><path d="M343,1103L531,1040L339,867Z" fill="#688ab1" stroke="#688ab1" stroke-width="1.51"/><path d="M1256,869L1346,708L1157,805Z" fill="#0870af" stroke="#0870af" stroke-width="1.51"/><path d="M1251,584L1319,348L1165,395Z" fill="#4d8cc0" stroke="#4d8cc0" stroke-width="1.51"/><path d="M1379,948L1346,708L1256,869Z" fill="#056aa6" stroke="#056aa6" stroke-width="1.51"/><path d="M257,800L260,998L339,867Z" fill="#7897c1" stroke="#7897c1" stroke-width="1.51"/><path d="M66,923L260,998L257,800Z" fill="#7e98c1" stroke="#7e98c1" stroke-width="1.51"/><path d="M260,998L343,1103L339,867Z" fill="#718fb6" stroke="#718fb6" stroke-width="1.51"/><path d="M179,561L144,706L354,715Z" fill="#89acd1" stroke="#89acd1" stroke-width="1.51"/><path d="M1037,144L888,47L871,182Z" fill="#8db1d4" stroke="#8db1d4" stroke-width="1.51"/><path d="M260,998L263,1047L343,1103Z" fill="#7089ac" stroke="#7089ac" stroke-width="1.51"/><path d="M119,1106L263,1047L260,998Z" fill="#768cae" stroke="#768cae" stroke-width="1.51"/><path d="M1346,708L1381,598L1251,584Z" fill="#237cb1" stroke="#237cb1" stroke-width="1.51"/><path d="M1404,382L1319,348L1251,584Z" fill="#4d88ba" stroke="#4d88ba" stroke-width="1.51"/><path d="M1204,348L1280,183L1037,144Z" fill="#739cc9" stroke="#739cc9" stroke-width="1.51"/><path d="M203,272L143,422L245,445Z" fill="#aec1dd" stroke="#aec1dd" stroke-width="1.51"/><path d="M245,445L143,422L179,561Z" fill="#a2bbda" stroke="#a2bbda" stroke-width="1.51"/><path d="M596,121L407,104L420,263Z" fill="#b2c2de" stroke="#b2c2de" stroke-width="1.51"/><path d="M497,-34L407,104L596,121Z" fill="#bac7e1" stroke="#bac7e1" stroke-width="1.51"/><path d="M179,561L94,629L144,706Z" fill="#90b2d5" stroke="#90b2d5" stroke-width="1.51"/><path d="M203,272L245,445L420,263Z" fill="#adc0dd" stroke="#adc0dd" stroke-width="1.51"/><path d="M263,1047L357,1179L343,1103Z" fill="#6982a2" stroke="#6982a2" stroke-width="1.51"/><path d="M343,1103L357,1179L524,1194Z" fill="#5e7999" stroke="#5e7999" stroke-width="1.51"/><path d="M143,422L94,629L179,561Z" fill="#9cbad9" stroke="#9cbad9" stroke-width="1.51"/><path d="M144,706L66,923L257,800Z" fill="#84a1cc" stroke="#84a1cc" stroke-width="1.51"/><path d="M407,104L203,272L420,263Z" fill="#b7c5e0" stroke="#b7c5e0" stroke-width="1.51"/><path d="M884,1220L985,1303L1156,1066Z" fill="#1a6089" stroke="#1a6089" stroke-width="1.51"/><path d="M232,1313L985,1303L701,1206Z" fill="#487193" stroke="#487193" stroke-width="1.51"/><path d="M232,1313L701,1206L524,1194Z" fill="#577697" stroke="#577697" stroke-width="1.51"/><path d="M1346,708L1489,710L1381,598Z" fill="#1d74aa" stroke="#1d74aa" stroke-width="1.51"/><path d="M1156,1066L1379,948L1256,869Z" fill="#04659f" stroke="#04659f" stroke-width="1.51"/><path d="M1346,1133L1379,948L1156,1066Z" fill="#045c90" stroke="#045c90" stroke-width="1.51"/><path d="M1381,598L1404,382L1251,584Z" fill="#3d82b5" stroke="#3d82b5" stroke-width="1.51"/><path d="M1319,348L1280,183L1204,348Z" fill="#6693c2" stroke="#6693c2" stroke-width="1.51"/><path d="M1037,144L1083,-80L888,47Z" fill="#91b2d4" stroke="#91b2d4" stroke-width="1.51"/><path d="M1437,391L1404,382L1381,598Z" fill="#4884b3" stroke="#4884b3" stroke-width="1.51"/><path d="M1541,182L1280,183L1319,348Z" fill="#6b90bc" stroke="#6b90bc" stroke-width="1.51"/><path d="M1280,183L1155,71L1037,144Z" fill="#80a2cd" stroke="#80a2cd" stroke-width="1.51"/><path d="M985,1303L1137,1268L1156,1066Z" fill="#145b87" stroke="#145b87" stroke-width="1.51"/><path d="M888,47L659,-68L693,143Z" fill="#a6bedc" stroke="#a6bedc" stroke-width="1.51"/><path d="M916,-212L659,-68L888,47Z" fill="#a9c2de" stroke="#a9c2de" stroke-width="1.51"/><path d="M132,182L113,301L203,272Z" fill="#c1cae3" stroke="#c1cae3" stroke-width="1.51"/><path d="M203,272L113,301L143,422Z" fill="#b7c5e0" stroke="#b7c5e0" stroke-width="1.51"/><path d="M-145,493L-61,646L94,629Z" fill="#a0bdda" stroke="#a0bdda" stroke-width="1.51"/><path d="M132,182L203,272L181,60Z" fill="#c9cee4" stroke="#c9cee4" stroke-width="1.51"/><path d="M1404,382L1541,182L1319,348Z" fill="#608bb7" stroke="#608bb7" stroke-width="1.51"/><path d="M1566,616L1437,391L1381,598Z" fill="#387cac" stroke="#387cac" stroke-width="1.51"/><path d="M659,-68L497,-34L596,121Z" fill="#b7c8e1" stroke="#b7c8e1" stroke-width="1.51"/><path d="M-61,646L144,706L94,629Z" fill="#93b3d5" stroke="#93b3d5" stroke-width="1.51"/><path d="M-35,899L66,923L144,706Z" fill="#89a2cb" stroke="#89a2cb" stroke-width="1.51"/><path d="M263,1047L119,1106L357,1179Z" fill="#6f84a4" stroke="#6f84a4" stroke-width="1.51"/><path d="M1379,948L1489,710L1346,708Z" fill="#096aa5" stroke="#096aa5" stroke-width="1.51"/><path d="M550,-160L469,-49L497,-34Z" fill="#c5d0e6" stroke="#c5d0e6" stroke-width="1.51"/><path d="M497,-34L469,-49L407,104Z" fill="#c3cce4" stroke="#c3cce4" stroke-width="1.51"/><path d="M1137,1268L1346,1133L1156,1066Z" fill="#065584" stroke="#065584" stroke-width="1.51"/><path d="M1379,948L1481,943L1489,710Z" fill="#04639b" stroke="#04639b" stroke-width="1.51"/><path d="M66,923L119,1106L260,998Z" fill="#7c93b6" stroke="#7c93b6" stroke-width="1.51"/><path d="M181,60L203,272L407,104Z" fill="#c6cce3" stroke="#c6cce3" stroke-width="1.51"/><path d="M1346,1133L1481,943L1379,948Z" fill="#045b8f" stroke="#045b8f" stroke-width="1.51"/><path d="M1155,71L1083,-80L1037,144Z" fill="#8cabd1" stroke="#8cabd1" stroke-width="1.51"/><path d="M1180,-50L1083,-80L1155,71Z" fill="#90acd2" stroke="#90acd2" stroke-width="1.51"/><path d="M1180,-50L1155,71L1411,-36Z" fill="#89a4ce" stroke="#89a4ce" stroke-width="1.51"/><path d="M1696,789L1566,616L1489,710Z" fill="#166799" stroke="#166799" stroke-width="1.51"/><path d="M1489,710L1566,616L1381,598Z" fill="#2074a7" stroke="#2074a7" stroke-width="1.51"/><path d="M-26,351L143,422L113,301Z" fill="#b7c7e1" stroke="#b7c7e1" stroke-width="1.51"/><path d="M-26,351L94,629L143,422Z" fill="#aac1dd" stroke="#aac1dd" stroke-width="1.51"/><path d="M66,923L-94,1023L119,1106Z" fill="#8297b7" stroke="#8297b7" stroke-width="1.51"/><path d="M1269,-136L1180,-50L1411,-36Z" fill="#8ea7cd" stroke="#8ea7cd" stroke-width="1.51"/><path d="M-61,646L-35,899L144,706Z" fill="#90acd2" stroke="#90acd2" stroke-width="1.51"/><path d="M-53,175L-26,351L113,301Z" fill="#c5cfe5" stroke="#c5cfe5" stroke-width="1.51"/><path d="M351,-112L181,60L407,104Z" fill="#ced1e6" stroke="#ced1e6" stroke-width="1.51"/><path d="M-53,175L113,301L132,182Z" fill="#c9d0e5" stroke="#c9d0e5" stroke-width="1.51"/><path d="M119,1106L232,1313L357,1179Z" fill="#6c7f9c" stroke="#6c7f9c" stroke-width="1.51"/><path d="M357,1179L232,1313L524,1194Z" fill="#617a99" stroke="#617a99" stroke-width="1.51"/><path d="M60,1190L232,1313L119,1106Z" fill="#72839e" stroke="#72839e" stroke-width="1.51"/><path d="M469,-49L351,-112L407,104Z" fill="#c9d0e5" stroke="#c9d0e5" stroke-width="1.51"/><path d="M659,-68L550,-160L497,-34Z" fill="#c0cee4" stroke="#c0cee4" stroke-width="1.51"/><path d="M736,-238L550,-160L659,-68Z" fill="#bdcee4" stroke="#bdcee4" stroke-width="1.51"/><path d="M1346,1133L1549,1102L1481,943Z" fill="#035483" stroke="#035483" stroke-width="1.51"/><path d="M1137,1268L1415,1196L1346,1133Z" fill="#03507e" stroke="#03507e" stroke-width="1.51"/><path d="M550,-160L351,-112L469,-49Z" fill="#cbd3e7" stroke="#cbd3e7" stroke-width="1.51"/><path d="M1437,391L1541,182L1404,382Z" fill="#5e89b4" stroke="#5e89b4" stroke-width="1.51"/><path d="M1566,616L1563,336L1437,391Z" fill="#477eaa" stroke="#477eaa" stroke-width="1.51"/><path d="M-94,1023L60,1190L119,1106Z" fill="#7c8da9" stroke="#7c8da9" stroke-width="1.51"/><path d="M1083,-80L916,-212L888,47Z" fill="#9dbbda" stroke="#9dbbda" stroke-width="1.51"/><path d="M1051,-186L916,-212L1083,-80Z" fill="#9ebbda" stroke="#9ebbda" stroke-width="1.51"/><path d="M-35,899L-94,1023L66,923Z" fill="#899ec2" stroke="#899ec2" stroke-width="1.51"/><path d="M-61,646L-125,794L-35,899Z" fill="#93acd3" stroke="#93acd3" stroke-width="1.51"/><path d="M-261,615L-125,794L-61,646Z" fill="#9cb8d8" stroke="#9cb8d8" stroke-width="1.51"/><path d="M1269,-136L1083,-80L1180,-50Z" fill="#93add3" stroke="#93add3" stroke-width="1.51"/><path d="M1269,-136L1051,-186L1083,-80Z" fill="#98b2d5" stroke="#98b2d5" stroke-width="1.51"/><path d="M550,-160L262,-156L351,-112Z" fill="#d2d7e9" stroke="#d2d7e9" stroke-width="1.51"/><path d="M916,-212L736,-238L659,-68Z" fill="#b3c9e1" stroke="#b3c9e1" stroke-width="1.51"/><path d="M1723,1221L1476,1186L1415,1196Z" fill="#03466d" stroke="#03466d" stroke-width="1.51"/><path d="M1415,1196L1476,1186L1346,1133Z" fill="#034c77" stroke="#034c77" stroke-width="1.51"/><path d="M1481,943L1696,789L1489,710Z" fill="#046097" stroke="#046097" stroke-width="1.51"/><path d="M-26,351L-145,493L94,629Z" fill="#acc4df" stroke="#acc4df" stroke-width="1.51"/><path d="M-205,389L-145,493L-26,351Z" fill="#bacce4" stroke="#bacce4" stroke-width="1.51"/><path d="M1476,1186L1549,1102L1346,1133Z" fill="#034c77" stroke="#034c77" stroke-width="1.51"/><path d="M27,-11L-53,175L132,182Z" fill="#d7d7e9" stroke="#d7d7e9" stroke-width="1.51"/><path d="M351,-112L172,-55L181,60Z" fill="#d8d8ea" stroke="#d8d8ea" stroke-width="1.51"/><path d="M262,-156L172,-55L351,-112Z" fill="#dbdbec" stroke="#dbdbec" stroke-width="1.51"/><path d="M1563,336L1541,182L1437,391Z" fill="#5e86b0" stroke="#5e86b0" stroke-width="1.51"/><path d="M-125,794L-94,1023L-35,899Z" fill="#8da4c7" stroke="#8da4c7" stroke-width="1.51"/><path d="M27,-11L132,182L181,60Z" fill="#d6d6e9" stroke="#d6d6e9" stroke-width="1.51"/><path d="M1411,-36L1155,71L1280,183Z" fill="#829ec8" stroke="#829ec8" stroke-width="1.51"/><path d="M172,-55L27,-11L181,60Z" fill="#dcdaeb" stroke="#dcdaeb" stroke-width="1.51"/><path d="M736,-238L262,-156L550,-160Z" fill="#cad4e8" stroke="#cad4e8" stroke-width="1.51"/><path d="M1727,974L1696,789L1481,943Z" fill="#045586" stroke="#045586" stroke-width="1.51"/><path d="M1566,616L1726,378L1563,336Z" fill="#44789f" stroke="#44789f" stroke-width="1.51"/><path d="M1563,336L1707,242L1541,182Z" fill="#6283a8" stroke="#6283a8" stroke-width="1.51"/><path d="M1541,182L1411,-36L1280,183Z" fill="#7b96be" stroke="#7b96be" stroke-width="1.51"/><path d="M1696,789L1717,658L1566,616Z" fill="#186491" stroke="#186491" stroke-width="1.51"/><path d="M60,1190L-4,1268L232,1313Z" fill="#75849f" stroke="#75849f" stroke-width="1.51"/><path d="M-94,1023L-4,1268L60,1190Z" fill="#7b89a2" stroke="#7b89a2" stroke-width="1.51"/><path d="M1549,1102L1617,1105L1481,943Z" fill="#034f7d" stroke="#034f7d" stroke-width="1.51"/><path d="M1476,1186L1617,1105L1549,1102Z" fill="#034871" stroke="#034871" stroke-width="1.51"/><path d="M42,-244L27,-11L172,-55Z" fill="#e6e2ef" stroke="#e6e2ef" stroke-width="1.51"/><path d="M-145,493L-261,615L-61,646Z" fill="#a5c1dd" stroke="#a5c1dd" stroke-width="1.51"/><path d="M-125,794L-224,1032L-94,1023Z" fill="#8ea2c4" stroke="#8ea2c4" stroke-width="1.51"/><path d="M-263,303L-205,389L-26,351Z" fill="#c4d1e6" stroke="#c4d1e6" stroke-width="1.51"/><path d="M-263,303L-26,351L-53,175Z" fill="#cbd3e8" stroke="#cbd3e8" stroke-width="1.51"/><path d="M1717,658L1726,378L1566,616Z" fill="#306d96" stroke="#306d96" stroke-width="1.51"/><path d="M1541,182L1506,-55L1411,-36Z" fill="#8097bb" stroke="#8097bb" stroke-width="1.51"/><path d="M-205,389L-261,615L-145,493Z" fill="#b2c8e1" stroke="#b2c8e1" stroke-width="1.51"/><path d="M-94,1023L-213,1286L-4,1268Z" fill="#7e8ca3" stroke="#7e8ca3" stroke-width="1.51"/><path d="M1717,658L1727,974L1726,378Z" fill="#18608b" stroke="#18608b" stroke-width="1.51"/><path d="M1696,789L1727,974L1717,658Z" fill="#035686" stroke="#035686" stroke-width="1.51"/><path d="M1617,1105L1727,974L1481,943Z" fill="#03507d" stroke="#03507d" stroke-width="1.51"/><path d="M1659,136L1506,-55L1541,182Z" fill="#788eb0" stroke="#788eb0" stroke-width="1.51"/><path d="M1411,-36L1391,-253L1269,-136Z" fill="#90a6ca" stroke="#90a6ca" stroke-width="1.51"/><path d="M1726,378L1707,242L1563,336Z" fill="#567b9f" stroke="#567b9f" stroke-width="1.51"/><path d="M1707,242L1659,136L1541,182Z" fill="#6984a6" stroke="#6984a6" stroke-width="1.51"/><path d="M-291,984L-224,1032L-125,794Z" fill="#91a5c6" stroke="#91a5c6" stroke-width="1.51"/><path d="M-261,615L-297,830L-125,794Z" fill="#9bb4d7" stroke="#9bb4d7" stroke-width="1.51"/><path d="M-261,615L-263,303L-297,830Z" fill="#aac4df" stroke="#aac4df" stroke-width="1.51"/><path d="M-205,389L-263,303L-261,615Z" fill="#bbcee5" stroke="#bbcee5" stroke-width="1.51"/><path d="M-263,180L-263,303L-53,175Z" fill="#d5d9ea" stroke="#d5d9ea" stroke-width="1.51"/><path d="M27,-11L-103,-19L-53,175Z" fill="#e1deed" stroke="#e1deed" stroke-width="1.51"/><path d="M-65,-251L-103,-19L27,-11Z" fill="#ece7f2" stroke="#ece7f2" stroke-width="1.51"/><path d="M-297,830L-291,984L-125,794Z" fill="#95abcd" stroke="#95abcd" stroke-width="1.51"/><path d="M-224,1032L-213,1286L-94,1023Z" fill="#8493ac" stroke="#8493ac" stroke-width="1.51"/><path d="M1556,-207L1391,-253L1506,-55Z" fill="#8ea2c1" stroke="#8ea2c1" stroke-width="1.51"/><path d="M1506,-55L1391,-253L1411,-36Z" fill="#8ca1c4" stroke="#8ca1c4" stroke-width="1.51"/><path d="M1269,-136L1391,-253L1051,-186Z" fill="#96aed4" stroke="#96aed4" stroke-width="1.51"/><path d="M1051,-186L1391,-253L916,-212Z" fill="#9db7d8" stroke="#9db7d8" stroke-width="1.51"/><path d="M916,-212L1391,-253L736,-238Z" fill="#a2bedc" stroke="#a2bedc" stroke-width="1.51"/><path d="M-263,303L-281,-90L-297,830Z" fill="#c8d4e8" stroke="#c8d4e8" stroke-width="1.51"/><path d="M-103,-19L-263,180L-53,175Z" fill="#dfdded" stroke="#dfdded" stroke-width="1.51"/><path d="M1617,1105L1723,1221L1727,974Z" fill="#024267" stroke="#024267" stroke-width="1.51"/><path d="M1476,1186L1723,1221L1617,1105Z" fill="#024166" stroke="#024166" stroke-width="1.51"/><path d="M1137,1268L1723,1221L1415,1196Z" fill="#034c76" stroke="#034c76" stroke-width="1.51"/><path d="M985,1303L1723,1221L1137,1268Z" fill="#035180" stroke="#035180" stroke-width="1.51"/><path d="M1659,136L1614,-70L1506,-55Z" fill="#7d90b1" stroke="#7d90b1" stroke-width="1.51"/><path d="M1680,-186L1614,-70L1659,136Z" fill="#7e8fac" stroke="#7e8fac" stroke-width="1.51"/><path d="M-103,-19L-281,-90L-263,180Z" fill="#e9e5f1" stroke="#e9e5f1" stroke-width="1.51"/><path d="M262,-156L42,-244L172,-55Z" fill="#e4e1ee" stroke="#e4e1ee" stroke-width="1.51"/><path d="M736,-238L42,-244L262,-156Z" fill="#dadcec" stroke="#dadcec" stroke-width="1.51"/><path d="M-65,-251L42,-244L736,-238Z" fill="#e4e1ef" stroke="#e4e1ef" stroke-width="1.51"/><path d="M-4,1268L-213,1286L232,1313Z" fill="#7a88a0" stroke="#7a88a0" stroke-width="1.51"/><path d="M-291,984L-213,1286L-224,1032Z" fill="#8897af" stroke="#8897af" stroke-width="1.51"/><path d="M1614,-70L1556,-207L1506,-55Z" fill="#8799b8" stroke="#8799b8" stroke-width="1.51"/><path d="M42,-244L-65,-251L27,-11Z" fill="#ede8f3" stroke="#ede8f3" stroke-width="1.51"/><path d="M1391,-253L-65,-251L736,-238Z" fill="#bed0e6" stroke="#bed0e6" stroke-width="1.51"/><path d="M1726,378L1680,-186L1707,242Z" fill="#6b81a0" stroke="#6b81a0" stroke-width="1.51"/><path d="M1707,242L1680,-186L1659,136Z" fill="#7487a4" stroke="#7487a4" stroke-width="1.51"/><path d="M1614,-70L1680,-186L1556,-207Z" fill="#8697b3" stroke="#8697b3" stroke-width="1.51"/><path d="M1556,-207L1680,-186L1391,-253Z" fill="#8d9fbc" stroke="#8d9fbc" stroke-width="1.51"/><path d="M-281,-117L-281,-90L-103,-19Z" fill="#f1ecf4" stroke="#f1ecf4" stroke-width="1.51"/><path d="M-263,180L-281,-90L-263,303Z" fill="#e1e0ef" stroke="#e1e0ef" stroke-width="1.51"/><path d="M-65,-251L-281,-117L-103,-19Z" fill="#f2ecf5" stroke="#f2ecf5" stroke-width="1.51"/><path d="M-281,-90L-281,-117L-297,830Z" fill="#d9dded" stroke="#d9dded" stroke-width="1.51"/></svg>